<?xml version="1.0" encoding="UTF-8" standalone="no"?>
<!-- Created with Inkscape (http://www.inkscape.org/) -->

<svg
   xmlns:dc="http://purl.org/dc/elements/1.1/"
   xmlns:cc="http://creativecommons.org/ns#"
   xmlns:rdf="http://www.w3.org/1999/02/22-rdf-syntax-ns#"
   xmlns:svg="http://www.w3.org/2000/svg"
   xmlns="http://www.w3.org/2000/svg"
   xmlns:sodipodi="http://sodipodi.sourceforge.net/DTD/sodipodi-0.dtd"
   xmlns:inkscape="http://www.inkscape.org/namespaces/inkscape"
   width="60.287201mm"
   height="53.011162mm"
   viewBox="0 0 60.287201 53.011162"
   version="1.1"
   id="svg4021"
   inkscape:version="0.92.1 r15371"
   sodipodi:docname="logo.svg">
  <defs
     id="defs4015" />
  <sodipodi:namedview
     id="base"
     pagecolor="#ffffff"
     bordercolor="#666666"
     borderopacity="1.0"
     inkscape:pageopacity="0.0"
     inkscape:pageshadow="2"
     inkscape:zoom="2.8"
     inkscape:cx="2.2740529"
     inkscape:cy="89.102289"
     inkscape:document-units="mm"
     inkscape:current-layer="layer1"
     showgrid="false"
     inkscape:window-width="1920"
     inkscape:window-height="1017"
     inkscape:window-x="-4"
     inkscape:window-y="-4"
     inkscape:window-maximized="1"
     fit-margin-top="0"
     fit-margin-left="0"
     fit-margin-right="0"
     fit-margin-bottom="0" />
  <metadata
     id="metadata4018">
    <rdf:RDF>
      <cc:Work
         rdf:about="">
        <dc:format>image/svg+xml</dc:format>
        <dc:type
           rdf:resource="http://purl.org/dc/dcmitype/StillImage" />
        <dc:title></dc:title>
      </cc:Work>
    </rdf:RDF>
  </metadata>
  <g
     inkscape:label="Layer 1"
     inkscape:groupmode="layer"
     id="layer1"
     transform="translate(-0.85241151,-2.3432348)">
    <g
       id="g4039"
       transform="translate(-62.744048,-232.83334)">
      <text
         id="text3981"
         y="273.27908"
         x="122.49775"
         style="font-style:normal;font-weight:normal;font-size:10.58333302px;line-height:1.25;font-family:sans-serif;letter-spacing:0px;word-spacing:0px;fill:#000000;fill-opacity:1;stroke:none;stroke-width:0.26458332"
         xml:space="preserve"><tspan
           style="font-style:normal;font-variant:normal;font-weight:normal;font-stretch:normal;font-size:5.64444447px;font-family:'Wide Latin';-inkscape-font-specification:'Wide Latin';text-align:end;text-anchor:end;stroke-width:0.26458332"
           y="273.27908"
           x="122.49775"
           id="tspan3979"
           sodipodi:role="line">Carlos Lock</tspan><tspan
           id="tspan3983"
           style="font-style:normal;font-variant:normal;font-weight:normal;font-stretch:normal;font-family:'Wide Latin';-inkscape-font-specification:'Wide Latin';text-align:end;text-anchor:end;stroke-width:0.26458332"
           y="286.50824"
           x="122.49775"
           sodipodi:role="line">CALG</tspan></text>
      <path
         inkscape:connector-curvature="0"
         d="m 80.603868,245.62342 c 1.30528,0.73477 2.61017,1.47436 3.92279,2.19737 1.25848,0.66649 2.69234,0.71559 4.08352,0.77856 1.40631,0.0121 2.818931,0.11169 4.222929,-0.021 1.20737,-0.11414 1.685311,-0.24596 2.878431,-0.49007 1.215009,-0.22769 2.39363,-0.59359 3.57297,-0.95458 0.767602,-0.23496 1.499152,-0.46083 2.229682,-0.79332 1.33115,-0.64566 1.78554,-0.87758 -2.594632,1.49899 -0.112689,0.0611 0.207309,-0.15109 0.30698,-0.23173 0.321831,-0.26037 0.60234,-0.55014 0.876062,-0.85931 0.8336,-1.2279 1.56728,-2.52155 2.11173,-3.9027 0.4127,-1.13516 0.52748,-2.33691 0.58251,-3.534 -0.0116,-0.27691 0.002,-0.46535 -0.0797,-0.72628 -0.017,-0.0545 -0.112,-0.28932 -0.21128,-0.31763 -0.0338,-0.01 -0.12687,0.0605 -0.0957,0.0442 1.10585,-0.57562 2.21322,-1.14833 3.31983,-1.7225 -0.0986,0.0996 -0.20976,0.18829 -0.29588,0.29892 -0.51816,0.6656 -0.91676,1.46622 -1.31509,2.20346 -2.00524,3.71139 1.01542,-1.82895 -1.22981,2.28077 -1.15301,2.53655 -2.42624,5.01032 -3.758051,7.45668 -0.96838,1.73639 -1.8656,3.51173 -2.853949,5.23676 -1.30511,2.1218 -2.8512,4.08757 -4.476292,5.97162 -1.083049,1.30782 -2.345539,2.44665 -3.708099,3.45406 -2.23887,1.4498 -4.44123,3.13352 -7.03702,3.86535 -1.20354,0.29589 -2.44316,0.38052 -3.6779,0.41201 -1.10249,0.0376 -1.61684,0.0475 -2.5213,-0.634 -0.89301,-0.59825 -1.42584,-1.44748 -1.77681,-2.44162 -0.0648,-0.32364 -0.10142,-0.80638 0.24526,-1.01498 2.90021,-1.74504 2.70318,-2.06225 4.86924,-2.20561 2.06358,-0.0653 4.12919,-0.0364 6.19347,-0.0255 3.19059,-0.0555 6.36547,0.27431 9.530551,0.63218 3.82307,0.48521 7.62419,1.12837 11.36744,2.04687 1.80442,0.3841 3.58537,1.09591 5.44853,1.17534 0.28895,0.0123 0.57786,-0.0256 0.86679,-0.0384 0.26416,-0.0571 0.53194,-0.0995 0.79249,-0.17129 0.27717,-0.0764 0.55503,-0.15699 0.8183,-0.27251 0.27532,-0.12081 1.05062,-0.5851 0.79092,-0.43361 -4.79735,2.79834 -2.50771,1.4874 -1.60289,0.83784 0.26642,-0.19126 0.51789,-0.40252 0.77684,-0.60377 0.87236,-0.70766 1.59887,-1.55408 2.28828,-2.43388 0,0 3.59,-1.54059 3.59,-1.54059 v 0 c -0.69272,0.90578 -1.40531,1.79115 -2.28124,2.5314 -1.83925,1.50695 -3.59194,2.40666 -5.80534,3.6375 -0.77889,0.43314 -1.62718,0.6642 -2.51166,0.7403 -0.29745,-0.004 -0.59582,0.0106 -0.89236,-0.0131 -1.85016,-0.14783 -3.60277,-0.83148 -5.39101,-1.26799 -3.724022,-0.94028 -7.513601,-1.56693 -11.327881,-2.01248 -3.1757,-0.33745 -6.36124,-0.64041 -9.55959,-0.56102 -2.08111,0.004 -4.16652,-0.0268 -6.24404,0.1113 -0.20531,0.0275 -0.41267,0.0424 -0.61592,0.0824 -0.1584,0.0312 -0.60151,0.21881 -0.46643,0.1304 0.9899,-0.64789 2.04071,-1.19794 3.0473,-1.81958 0.0875,-0.054 -0.1991,0.0602 -0.28641,0.11454 -0.0697,0.0433 -0.14612,0.0961 -0.17547,0.17275 -0.035,0.0913 -0.002,0.19558 -0.003,0.29337 0.29821,0.93504 0.79268,1.69602 1.64083,2.22865 0.12479,0.0784 0.24259,0.16927 0.37438,0.23526 0.61261,0.30673 1.34886,0.17418 2.00406,0.19204 1.20754,-0.0435 2.419511,-0.13608 3.58641,-0.47302 1.72711,-0.56388 0.817771,-0.32824 -1.94085,1.39581 -0.18794,0.11746 0.39014,-0.2112 0.57699,-0.33038 0.373101,-0.23796 0.72532,-0.50763 1.09821,-0.74592 0.18956,-0.12113 0.38126,-0.23887 0.57189,-0.3583 1.39781,-0.96823 2.690651,-2.09811 3.795611,-3.39339 1.64831,-1.85023 3.18432,-3.81003 4.513171,-5.90364 0.985898,-1.72545 1.84917,-3.51803 2.857349,-5.23201 1.364959,-2.4339 2.669881,-4.89982 3.7793,-7.46282 0.87492,-1.6265 1.68218,-3.29001 2.63525,-4.87298 2.40116,-1.30398 4.12382,-3.44967 4.28136,-0.52678 -0.0512,1.23617 -0.16627,2.4795 -0.55652,3.66126 -0.52116,1.41225 -1.27257,2.69741 -2.02446,3.99753 -1.27292,1.75331 -3.38229,2.69257 -5.301752,3.57611 -1.858151,0.72431 -3.814609,1.18659 -5.758299,1.61352 -1.260142,0.2398 -1.657422,0.34869 -2.931582,0.46006 -1.42863,0.12486 -2.86642,0.0541 -4.29715,0.0279 -1.44568,-0.0783 -2.91767,-0.17186 -4.20031,-0.9178 -1.30083,-0.74854 -2.60414,-1.49165 -3.95086,-2.15587 0,0 3.30892,-2.17715 3.30892,-2.17715 z"
         id="path4001"
         style="fill:#c83737;stroke-width:0.26458332" />
    </g>
    <rect
       style="opacity:0;fill:#000000;fill-opacity:1;stroke-width:0.1;stroke-miterlimit:4;stroke-dasharray:none"
       id="rect4494"
       width="60.287201"
       height="53.011162"
       x="0.85241151"
       y="2.3432348" />
    <path
       style="fill:none;stroke:#000000;stroke-width:0.26458332px;stroke-linecap:butt;stroke-linejoin:miter;stroke-opacity:1"
       d="m 0.85241151,55.354397 c 60.28720049,0 60.28720049,0 60.28720049,0"
       id="path4496"
       inkscape:connector-curvature="0" />
  </g>
</svg>
